<svg xmlns="http://www.w3.org/2000/svg" aria-hidden="true" style="position:absolute;width:0;height:0;overflow:hidden">
  <defs>
    <symbol id="icon-burger" viewBox="0 0 33 32">
      <path d="m28.667 12.19.117.007a1.143 1.143 0 0 1 0 2.274l-.117.007h-24a1.143 1.143 0 0 1 0-2.286h24zM28.667 6.857l.117.006a1.143 1.143 0 0 1 0 2.274l-.117.007h-24a1.143 1.143 0 0 1 0-2.286h24zM28.667 17.523l.117.007a1.143 1.143 0 0 1 0 2.274l-.117.007h-24a1.143 1.143 0 0 1 0-2.286h24zM28.667 22.857l.117.007a1.143 1.143 0 0 1 0 2.274l-.117.007h-24a1.143 1.143 0 0 1 0-2.286h24z" fill="currentColor"/>
    </symbol>
    <symbol id="icon-chevron-up" viewBox="0 0 33 32">
      <path d="M23.724 20.943a1.332 1.332 0 1 0 1.885-1.885l-8-8a1.332 1.332 0 0 0-1.885 0l-8 8-.091.101a1.333 1.333 0 0 0 1.875 1.875l.102-.091 7.057-7.057 7.057 7.057z"
      fill="currentColor"/>
    </symbol>
    <symbol id="icon-cross" viewBox="0 0 33 32">
      <path d="M23.605 6.938a1.501 1.501 0 0 1 2.122 2.122l-6.939 6.939 6.939 6.939.103.115a1.502 1.502 0 0 1-2.111 2.111l-.115-.103-6.939-6.939-6.939 6.939a1.5 1.5 0 1 1-2.122-2.122L14.543 16 7.604 9.061l-.103-.115a1.502 1.502 0 0 1 2.111-2.111l.115.103 6.939 6.939 6.939-6.939z"
      fill="currentColor"/>
    </symbol>
    <symbol id="icon-plus" viewBox="0 0 33 32">
      <path d="M16.667 5.667a1 1 0 0 1 1 1V15l8.436.005a1 1 0 0 1 0 1.99L26 17h-8.333v8.333a1 1 0 0 1-2 0V17H7.334a1 1 0 0 1 0-2h8.333V6.667a1 1 0 0 1 1-1z"
      fill="currentColor"/>
    </symbol>
    <symbol id="icon-camera-frame" viewBox="0 0 32 32">
    <path d="M3.81 20.322c0.138 0 0.25 0.112 0.25 0.25v4.572c0 0.742 0.295 1.453 0.819 1.978s1.237 0.819 1.979 0.819h4.57c0.138 0 0.25 0.112 0.25 0.25s-0.112 0.25-0.25 0.25h-4.57c-0.875 0-1.714-0.348-2.332-0.966s-0.966-1.456-0.966-2.331v-4.572c0-0.138 0.112-0.25 0.25-0.25z" fill="currentColor"></path>
    <path d="M28.191 20.322c0.138 0 0.25 0.112 0.25 0.25v4.572c-0 0.874-0.348 1.712-0.966 2.331s-1.457 0.966-2.332 0.966h-4.572c-0.138 0-0.25-0.112-0.25-0.25s0.112-0.25 0.25-0.25h4.572c0.742 0 1.453-0.295 1.978-0.819s0.82-1.236 0.82-1.978v-4.572c0-0.138 0.112-0.25 0.25-0.25z" fill="currentColor"></path>
    <path d="M18.425 12.5h1.574c0.275 0 0.511 0.098 0.707 0.294s0.293 0.431 0.293 0.706v6c0 0.275-0.098 0.51-0.293 0.706s-0.432 0.294-0.707 0.294h-8c-0.275-0-0.51-0.099-0.706-0.294s-0.294-0.431-0.294-0.706v-6c0-0.275 0.098-0.51 0.294-0.706s0.431-0.294 0.706-0.294h1.576l0.924-1h3l0.926 1zM16 14.25c-0.625 0-1.156 0.219-1.594 0.656s-0.656 0.969-0.656 1.594c0 0.625 0.219 1.156 0.656 1.594s0.969 0.656 1.594 0.656c0.625 0 1.156-0.219 1.594-0.656s0.656-0.969 0.656-1.594c0-0.625-0.219-1.156-0.656-1.594s-0.969-0.656-1.594-0.656z" fill="currentColor"></path>
    <path d="M11.526 3.556c0.089 0.038 0.152 0.126 0.152 0.229 0 0.138-0.111 0.251-0.249 0.251l-4.581 0.016c-0.74 0.002-1.45 0.297-1.973 0.822s-0.816 1.235-0.816 1.975v4.579c0 0.138-0.112 0.25-0.25 0.25s-0.25-0.112-0.25-0.25v-4.579c0-0.873 0.346-1.71 0.962-2.328s1.453-0.966 2.326-0.969l4.581-0.016 0.098 0.020z" fill="currentColor"></path>
    <path d="M25.153 3.551l0.324 0.017c0.753 0.077 1.461 0.411 2 0.952 0.616 0.618 0.964 1.455 0.964 2.328v4.581c0 0.138-0.112 0.25-0.25 0.25s-0.25-0.112-0.25-0.25v-4.581c0-0.74-0.294-1.451-0.816-1.975-0.458-0.459-1.059-0.742-1.698-0.807l-0.276-0.014-4.579-0.014-0.098-0.020c-0.090-0.038-0.153-0.128-0.152-0.232 0.001-0.138 0.113-0.249 0.251-0.249l4.581 0.014z" fill="currentColor"></path>
    </symbol>
    <symbol id="icon-minus" viewBox="0 0 33 32">
      <path d="m26 15 .103.005a1 1 0 0 1 0 1.99L26 17H7.333a1 1 0 0 1 0-2H26z"
      fill="currentColor"/>
    </symbol>
    <symbol id="icon-chevron-down" viewBox="0 0 33 32">
      <path d="M23.535 10.868a1.6 1.6 0 1 1 2.263 2.263l-8 8a1.6 1.6 0 0 1-2.142.109l-.121-.109-8-8-.109-.121a1.6 1.6 0 0 1 2.251-2.251l.121.109 6.869 6.868 6.869-6.868z"
      fill="currentColor"/>
    </symbol>
    <symbol id="icon-arrow-left" viewBox="0 0 33 32">
      <path d="M15.725 5.629a1.332 1.332 0 1 1 1.885 1.885l-7.155 7.151 15.639.003a1.332 1.332 0 1 1-.001 2.665l-15.637-.001 7.151 7.152a1.334 1.334 0 0 1-1.885 1.886l-9.454-9.458-.034-.038-.031-.034a.619.619 0 0 1-.037-.05 1.375 1.375 0 0 1-.111-.177l-.025-.051a1.554 1.554 0 0 1-.026-.06l-.016-.038a1.406 1.406 0 0 1-.055-.189c-.005-.022-.008-.045-.012-.068s-.007-.047-.009-.07l-.004-.039-.003-.074-.001-.025.001-.026.004-.081a1.42 1.42 0 0 1 .018-.146l.01-.049a1.203 1.203 0 0 1 .07-.215l.017-.04a.677.677 0 0 1 .033-.066l.029-.05.035-.057.026-.038a1.32 1.32 0 0 1 .044-.06l.043-.051.034-.036.026-.027 9.43-9.427z"
      fill="currentColor"/>
    </symbol>
    <symbol id="icon-arrow-up-right" viewBox="0 0 33 32">
      <path d="M9.999 8.034c.267-.218 13.114-.021 13.439.005l.027.001a.086.086 0 0 0 .016.001c.031.004.063.008.094.014l.016.003c.031.006.062.015.093.023l.035.01c.021.007.043.013.064.021l.048.018c.022.009.043.02.064.03l.031.014.034.018a.927.927 0 0 1 .042.025l.035.022c.023.015.047.03.069.047l.026.02c.022.017.044.036.065.055l.034.031.022.021c.009.009.016.019.025.027a1.217 1.217 0 0 1 .115.138l.03.044.029.046.038.069.016.031.026.057c.007.015.012.031.018.047a1.567 1.567 0 0 1 .039.121l.017.065.012.066.008.055.004.044.005.046v13.396a1.298 1.298 0 1 1-2.598 0V12.47L10.922 23.585a1.301 1.301 0 0 1-1.839-1.839l11.115-11.115H10.003a1.299 1.299 0 1 1 0-2.598z"
      fill="currentColor"/>
    </symbol>
    <symbol id="icon-eye-closed" viewBox="0 0 33 32">
      <path d="M.982.315A1.44 1.44 0 0 1 2.909.216l.109.099L32.45 29.758a1.44 1.44 0 0 1-2.026 2.026l-.109-.099-5.897-5.897a14.86 14.86 0 0 1-7.134 2.297l-.594.022h-.023c-5.242 0-9.263-2.993-11.884-5.789a27.692 27.692 0 0 1-3.79-5.154 20.517 20.517 0 0 1-.203-.371l-.055-.104a.594.594 0 0 1-.014-.03l-.005-.009-.001-.004-.001-.001a1.44 1.44 0 0 1 .02-1.326 26.035 26.035 0 0 1 5.871-7.346L.984 2.352l-.099-.109A1.44 1.44 0 0 1 .984.316zm7.661 9.698a23.147 23.147 0 0 0-4.995 5.99 24.085 24.085 0 0 0 3.235 4.347c2.376 2.534 5.682 4.87 9.766 4.876a11.996 11.996 0 0 0 5.669-1.536l-2.937-2.938a5.542 5.542 0 0 1-.6.318 5.449 5.449 0 0 1-4.252.075 5.452 5.452 0 0 1-3.007-3.008 5.43 5.43 0 0 1 .39-4.854l-3.271-3.271zm8.026-6.118c5.241.001 9.261 2.993 11.881 5.788a27.692 27.692 0 0 1 3.79 5.154c.088.157.156.283.203.371l.055.104a.594.594 0 0 1 .014.03l.005.009.001.004.001.001.069.16c.136.38.105.802-.087 1.163a26.18 26.18 0 0 1-3.048 4.503 1.44 1.44 0 0 1-2.204-1.854 23.19 23.19 0 0 0 2.333-3.329 24.085 24.085 0 0 0-3.235-4.347c-2.379-2.537-5.691-4.878-9.783-4.878h-.004a10.707 10.707 0 0 0-1.858.158l-.609.125a1.44 1.44 0 0 1-.656-2.804l.385-.085a13.571 13.571 0 0 1 2.742-.272h.001l.003-.001-.001.001zM14.09 15.46a2.556 2.556 0 0 0 3.117 3.117l-3.116-3.116z"
      fill="currentColor"/>
    </symbol>
    <symbol id="icon-facebook" viewBox="0 0 33 32">
      <path d="M20.187 4.64h.96v3.6h-1.2c-.48 0-.96 0-1.2.24s-.24.48-.24 1.04v1.28h2.64v3.04h-2.64v13.2h-4.08V13.76h-2.16v-3.04h2.16V9.68c0-1.76.24-3.04.72-3.6.72-1.04 2.16-1.52 4.32-1.52.24.08.48.08.72.08z"
      fill="currentColor"/>
    </symbol>
    <symbol id="icon-trash" viewBox="0 0 33 32">
      <path d="M28.667 6.667a1.333 1.333 0 0 1 0 2.666h-1.419l-.851 12.781c-.069 1.031-.125 1.881-.227 2.572-.091.618-.228 1.19-.491 1.727l-.12.228a5.339 5.339 0 0 1-1.952 1.97l-.357.189c-.623.302-1.278.423-1.99.479-.695.055-1.548.055-2.581.055h-4.026c-1.033 0-1.885.001-2.581-.055-.623-.049-1.203-.147-1.755-.374l-.234-.105a5.319 5.319 0 0 1-2.096-1.818l-.212-.341c-.343-.602-.507-1.248-.611-1.955-.051-.345-.09-.73-.125-1.157l-.102-1.414-.852-12.781H4.666a1.333 1.333 0 0 1 0-2.666h24zM9.599 21.937l.098 1.372c.032.386.064.709.105.99.08.545.179.825.29 1.021l.105.171a2.67 2.67 0 0 0 1.048.909l.171.07c.192.066.455.118.867.151.565.045 1.294.046 2.37.046h4.026c1.075 0 1.804-.001 2.37-.046.549-.044.835-.123 1.038-.221l.178-.095c.405-.236.742-.575.975-.984l.082-.165c.078-.187.148-.446.208-.855.082-.561.132-1.289.203-2.362l.84-12.604H8.758l.84 12.604zM20.667 2.667a1.333 1.333 0 0 1 0 2.666h-8a1.333 1.333 0 0 1 0-2.666h8z"
      fill="currentColor"/>
    </symbol>
    <symbol id="icon-eye" viewBox="0 0 33 32">
      <path d="M16.667 3.893c5.242 0 9.263 2.993 11.884 5.789a27.692 27.692 0 0 1 3.79 5.154c.088.157.156.283.203.371l.055.104a.594.594 0 0 1 .014.03l.005.009.001.004.001.001.066.156c.114.316.114.661 0 .977l-.066.156-.001.001-.001.004-.005.009-.014.03-.055.104a25.28 25.28 0 0 1-.98 1.655 27.692 27.692 0 0 1-3.013 3.87c-2.621 2.796-6.642 5.789-11.884 5.789s-9.263-2.993-11.884-5.789a27.692 27.692 0 0 1-3.79-5.154 20.517 20.517 0 0 1-.203-.371l-.055-.104a.594.594 0 0 1-.014-.03l-.005-.009-.001-.004-.001-.001a1.44 1.44 0 0 1 0-1.289l.001-.001.001-.004.005-.009.014-.03.055-.104a25.28 25.28 0 0 1 .98-1.655 27.692 27.692 0 0 1 3.013-3.87c2.621-2.796 6.642-5.789 11.884-5.789zm0 2.88c-4.091 0-7.404 2.34-9.783 4.878a24.873 24.873 0 0 0-3.238 4.348 24.756 24.756 0 0 0 3.238 4.348c2.379 2.537 5.691 4.878 9.783 4.878s7.404-2.34 9.783-4.878a24.873 24.873 0 0 0 2.695-3.463c.221-.343.401-.644.542-.885a24.756 24.756 0 0 0-3.237-4.348c-2.379-2.537-5.691-4.878-9.783-4.878z"
      fill="currentColor"/>
      <path d="M19.227 16a2.56 2.56 0 1 0-5.12 0 2.56 2.56 0 0 0 5.12 0zm2.88 0a5.44 5.44 0 1 1-10.881-.001A5.44 5.44 0 0 1 22.107 16z"
      fill="currentColor"/>
    </symbol>
    <symbol id="icon-youtube" viewBox="0 0 33 32">
      <path d="M30.779 9.356s-.288-2.08-1.152-2.971c-1.056-1.189-2.304-1.189-2.88-1.288-4.032-.297-10.08-.297-10.08-.297s-6.048 0-10.08.297c-.576.099-1.824.099-2.88 1.288-.864.891-1.152 2.971-1.152 2.971s-.288 2.377-.288 4.754v2.179c0 2.377.288 4.853.288 4.853s.288 2.08 1.152 2.971c1.056 1.189 2.496 1.189 3.168 1.288 2.304.099 9.792.198 9.792.198s6.048 0 10.08-.297c.576-.099 1.824-.099 2.88-1.288.864-.891 1.152-2.971 1.152-2.971s.288-2.377.288-4.754V14.11c0-2.377-.288-4.754-.288-4.754zm-17.088 9.707v-8.32l7.776 4.16-7.776 4.16z"
      fill="currentColor"/>
    </symbol>
    <symbol id="icon-like" viewBox="0 0 33 32">
      <path d="M29.269 11.333a5.996 5.996 0 0 0-1.759-4.244 6 6 0 0 0-3.948-1.751l-.296-.008a5.996 5.996 0 0 0-4.244 1.758l-1.414 1.414a1.332 1.332 0 0 1-1.885 0L14.31 7.089a6.001 6.001 0 1 0-8.488 8.487L16.666 26.42l11.048-11.057a6.008 6.008 0 0 0 1.555-4.03zm2.666 0a8.668 8.668 0 0 1-2.246 5.821l-.294.309-11.786 11.786a1.334 1.334 0 0 1-1.886 0L3.937 17.463a8.666 8.666 0 0 1 6.129-14.797c2.299 0 4.505.912 6.13 2.538l.47.47.47-.47a8.674 8.674 0 0 1 6.131-2.539l.426.01a8.66 8.66 0 0 1 5.703 2.529l.294.309a8.654 8.654 0 0 1 2.246 5.822z" fill="currentColor"/>
    </symbol>
    <symbol id="icon-instagram" viewBox="0 0 33 32">
      <path d="M16.659 11.967a4.004 4.004 0 1 1 0 8.009 4.004 4.004 0 0 1 0-8.009z" fill="currentColor"/>
      <path d="M16.665 3.201c3.471 0 3.905.017 5.272.078a9.424 9.424 0 0 1 3.108.595 6.544 6.544 0 0 1 3.743 3.737 9.264 9.264 0 0 1 .595 3.146c.08 1.358.079 1.798.082 5.263 0 3.467-.018 3.9-.079 5.266a9.32 9.32 0 0 1-.595 3.104 6.56 6.56 0 0 1-3.744 3.737 9.401 9.401 0 0 1-3.107.594c-1.358.079-1.803.079-5.275.079s-3.906-.018-5.275-.079a9.364 9.364 0 0 1-3.105-.638 6.549 6.549 0 0 1-3.745-3.736 9.34 9.34 0 0 1-.595-3.104c-.08-1.356-.079-1.799-.079-5.264s.018-3.899.079-5.266c.02-1.06.221-2.11.595-3.102a6.543 6.543 0 0 1 3.744-3.737 9.411 9.411 0 0 1 3.105-.595c1.358-.078 1.803-.078 5.275-.078zm-.009 6.208c-3.63 0-6.572 2.937-6.572 6.561s2.941 6.561 6.572 6.561c3.628 0 6.573-2.936 6.573-6.561s-2.945-6.561-6.573-6.561zm6.835-1.772a1.53 1.53 0 1 0 0 3.06 1.53 1.53 0 1 0 0-3.06z" fill="currentColor"/>
    </symbol>
    <symbol id="icon-quote" viewBox="0 0 33 32">
      <path d="M.667 26.034v-8.71c0-3.254.573-6.253 1.719-8.997S5.475 2.808 8.213 0l4.967 3.924c-1.592 1.595-2.802 3.095-3.63 4.498s-1.369 2.839-1.624 4.307h6.114v13.304H.667zm18.626 0v-8.71c0-3.254.573-6.253 1.719-8.997S24.101 2.808 26.839 0l4.967 3.924c-1.592 1.595-2.802 3.095-3.63 4.498s-1.369 2.839-1.624 4.307h6.113v13.304H19.292z" fill="currentColor"/>
    </symbol>
  </defs>
</svg>